<svg width="28" height="43" viewBox="0 0 28 43" fill="none" xmlns="http://www.w3.org/2000/svg">
<path d="M13.5512 25.4714V29.5232H15.5251V25.4714H13.5512Z" fill="#676C71"/>
<path d="M13.5512 25.4715V26.8997C14.2785 26.8695 15.0057 26.8395 15.5251 26.8147V25.4715H13.5512Z" fill="#45464A"/>
<path d="M7.42169 24.0838C7.42169 25.0223 8.18248 25.7831 9.12093 25.7831H19.9555C20.894 25.7831 21.6548 25.0223 21.6548 24.0838V24.0539C21.6548 23.1155 20.894 22.3547 19.9555 22.3547H9.12093C8.18248 22.3547 7.42169 23.1155 7.42169 24.0539V24.0838Z" fill="#29283D"/>
<path d="M21.4469 37.3151H22.2781V35.4714C22.2781 35.0654 22.1846 34.7111 21.9075 34.4467C21.6341 34.186 21.2688 34.0636 20.7696 33.9841C20.4484 33.9327 20.2116 33.9905 20.1567 33.9905H15.4213V34.51H20.1805C20.4229 34.51 20.9228 34.589 21.2651 34.9168C21.4011 35.0471 21.4469 35.2587 21.4469 35.4714V37.3151Z" fill="#29283D"/>
<path d="M17.3953 39.3928H18.3303V34.5099H17.3953V39.3928Z" fill="#29283D"/>
<path d="M17.4291 39.0732C17.4291 39.1328 17.433 39.1917 17.44 39.2493C17.5268 39.9445 18.1197 40.4824 18.8385 40.4824C19.5572 40.4824 20.1501 39.9445 20.2369 39.2493C20.2439 39.1917 20.2478 39.1328 20.2478 39.0732C20.2478 38.295 19.6168 37.6638 18.8385 37.6638C18.0603 37.6638 17.4291 38.295 17.4291 39.0732Z" fill="#6B6D6F"/>
<path d="M17.4291 39.0929C17.4291 39.1526 17.433 39.185 17.44 39.2889H20.2369C20.2439 39.185 20.2478 39.1526 20.2478 39.0929C20.2478 38.3148 19.6168 37.6835 18.8385 37.6835C18.0603 37.6835 17.4291 38.3148 17.4291 39.0929Z" fill="#29283D"/>
<path d="M21.4469 39.3928H22.2781V35.0294H21.4469V39.3928Z" fill="#29283D"/>
<path d="M21.3897 39.0732C21.3897 39.1328 21.3935 39.1917 21.4005 39.2493C21.4873 39.9445 22.0802 40.4824 22.7991 40.4824C23.5178 40.4824 24.1107 39.9445 24.1974 39.2493C24.2044 39.1917 24.2083 39.1328 24.2083 39.0732C24.2083 38.295 23.5773 37.6638 22.7991 37.6638C22.0207 37.6638 21.3897 38.295 21.3897 39.0732Z" fill="#6B6D6F"/>
<path d="M21.3897 39.0929C21.3897 39.1526 21.3935 39.185 21.4005 39.2889H24.1974C24.2044 39.185 24.2083 39.1526 24.2083 39.0929C24.2083 38.3148 23.5773 37.6835 22.7991 37.6835C22.0207 37.6835 21.3897 38.3148 21.3897 39.0929Z" fill="#29283D"/>
<path d="M10.6424 39.3928H11.5774V34.5099H10.6424V39.3928Z" fill="#29283D"/>
<path d="M10.622 39.0732C10.622 39.1328 10.6259 39.1917 10.6329 39.2493C10.7197 39.9445 11.3127 40.4824 12.0314 40.4824C12.7502 40.4824 13.343 39.9445 13.4298 39.2493C13.4368 39.1917 13.4407 39.1328 13.4407 39.0732C13.4407 38.295 12.8096 37.6638 12.0314 37.6638C11.2532 37.6638 10.622 38.295 10.622 39.0732Z" fill="#6B6D6F"/>
<path d="M10.622 39.0929C10.622 39.1526 10.6259 39.185 10.6329 39.2889H13.4298C13.4368 39.185 13.4407 39.1526 13.4407 39.0929C13.4407 38.3148 12.8096 37.6835 12.0314 37.6835C11.2532 37.6835 10.622 38.3148 10.622 39.0929Z" fill="#29283D"/>
<path d="M7.83723 37.3151H6.90221V35.4714C6.90221 35.0654 7.01909 34.7111 7.29606 34.4467C7.56961 34.186 7.94663 34.0636 8.44572 33.9841C8.76696 33.9327 9.01546 33.9905 9.07021 33.9905H13.759V34.51H9.04642C8.80415 34.51 8.33279 34.589 7.99047 34.9168C7.85448 35.0471 7.83723 35.2587 7.83723 35.4714V37.3151Z" fill="#29283D"/>
<path d="M7.83716 39.3928H6.90214V35.0294H7.83716V39.3928Z" fill="#29283D"/>
<path d="M9.78955 39.0732C9.78955 39.1328 9.78571 39.1917 9.77875 39.2493C9.692 39.9445 9.09899 40.4824 8.38027 40.4824C7.66155 40.4824 7.06864 39.9445 6.98179 39.2493C6.97483 39.1917 6.97109 39.1328 6.97109 39.0732C6.97109 38.295 7.60202 37.6638 8.38027 37.6638C9.15852 37.6638 9.78955 38.295 9.78955 39.0732Z" fill="#6B6D6F"/>
<path d="M9.78955 39.0929C9.78955 39.1526 9.78571 39.185 9.77875 39.2889H6.98179C6.97483 39.185 6.97109 39.1526 6.97109 39.0929C6.97109 38.3148 7.60202 37.6835 8.38027 37.6835C9.15852 37.6835 9.78955 38.3148 9.78955 39.0929Z" fill="#29283D"/>
<path d="M13.1356 28.7959V35.0294H15.9407V28.7959H13.1356Z" fill="#29283D"/>
<path d="M14.5903 28.7959V35.0294H15.4214V28.7959H14.5903Z" fill="#525086"/>
<path d="M12.4086 26.3026H16.5642V24.952H12.4086V26.3026Z" fill="#29283D"/>
<path d="M16.6246 28.0687C16.6246 28.2512 16.7494 28.3804 16.9031 28.3804H21.7301C21.8839 28.3804 22.0085 28.2512 22.0085 28.0687C22.0085 27.886 21.8839 27.757 21.7301 27.757H16.9031C16.7494 27.757 16.6246 27.886 16.6246 28.0687Z" fill="#29283D"/>
<path d="M17.1746 28.2802C17.2242 28.2802 17.2742 28.2632 17.3149 28.2284C17.4061 28.1509 17.417 28.0143 17.3394 27.9233L15.2045 25.4171C15.1269 25.3259 14.9902 25.3149 14.8992 25.3926C14.8082 25.4701 14.7971 25.6068 14.8747 25.6979L17.0096 28.2041C17.0524 28.2543 17.1133 28.2802 17.1746 28.2802Z" fill="#29283D"/>
<path d="M1.3145 20.86C1.81214 20.3354 2.5292 20.1495 3.52489 20.0193C4.65502 19.8718 6.40871 19.7814 8.73712 19.7508C10.189 19.7315 13.5925 19.5451 14.0508 17.6742C14.2035 17.0505 14.1403 16.285 14.177 15.6424C14.2104 15.057 14.2395 14.4712 14.2655 13.8854C14.3134 12.8075 14.3597 11.7299 14.4208 10.6528C14.5328 8.67961 14.6309 6.70579 14.7431 4.73268C14.7652 4.34309 14.8079 3.94934 14.8079 3.55892C14.8079 2.43482 15.6684 0.970888 17.1435 0.774326C19.9281 0.403019 25.8687 -0.246717 26.4255 0.774326C26.4255 0.774326 25.0838 17.6463 24.7382 18.9821C24.3927 20.318 19.7446 21.4827 19.2066 21.7175C18.8519 21.8725 16.8676 21.9312 15.2873 21.924C14.3531 23.0796 13.851 24.2634 11.8526 24.4436C11.3916 24.4852 3.07442 23.9007 2.77687 23.9208C1.75375 23.9883 0.871927 23.2334 0.807203 22.2347C0.774893 21.735 0.959818 21.2338 1.3145 20.86Z" fill="#A0E4FA"/>
<path d="M19.4252 24.212C21.947 23.9845 23.9128 23.2208 25.2814 21.9336C26.6404 20.6555 26.8953 19.3156 26.9327 19.0601C26.9416 18.9982 26.9475 18.9361 26.9502 18.8739L27.6864 2.20879C27.7316 1.18464 26.938 0.317455 25.9136 0.272263C24.8891 0.226967 24.0223 1.0208 23.977 2.04506C23.9092 3.57932 23.8427 5.1139 23.7766 6.64838C23.6582 9.39578 23.5729 12.1489 23.4097 14.8937C23.375 15.4775 23.3538 16.0573 23.346 16.6417C23.3336 17.5831 23.4142 18.8044 22.5266 19.395C21.8024 19.8771 21.097 20.2097 20.2306 20.3586C19.4854 20.4865 18.7008 20.5614 17.9447 20.57C15.6159 20.5963 13.8622 20.6851 12.7321 20.8338C11.7365 20.9649 11.0196 21.1538 10.523 21.69C10.169 22.0721 9.9853 22.585 10.0187 23.097C10.0857 24.1201 10.7366 24.6033 11.7598 24.5364C12.0573 24.5164 14.3471 24.6721 17.9866 24.2829C18.4817 24.2299 18.9642 24.2535 19.4252 24.212Z" fill="#229BB5"/>
<path d="M15.7897 5.33427C16.857 5.23817 17.9439 5.29178 19.0144 5.29209C19.5519 5.2922 20.0894 5.29241 20.6268 5.29251C21.1602 5.29261 21.7084 5.25875 22.2392 5.31682C22.3288 5.32659 22.3288 5.45406 22.2392 5.46383C21.7084 5.5219 21.1602 5.48803 20.6268 5.48814C20.0894 5.48824 19.5519 5.48845 19.0144 5.48855C17.9439 5.48876 16.857 5.54237 15.7897 5.44637C15.7212 5.44024 15.7212 5.3404 15.7897 5.33427Z" fill="#B55522"/>
<path d="M15.7897 10.0993C16.857 10.0033 17.9439 10.0569 19.0144 10.0572C19.5519 10.0573 20.0894 10.0574 20.6268 10.0577C21.1602 10.0577 21.7084 10.0239 22.2392 10.082C22.3288 10.0917 22.3288 10.2191 22.2392 10.229C21.7084 10.287 21.1602 10.2532 20.6268 10.2533C20.0894 10.2534 19.5519 10.2536 19.0144 10.2536C17.9439 10.2538 16.857 10.3076 15.7897 10.2115C15.7212 10.2054 15.7212 10.1054 15.7897 10.0993Z" fill="#B55522"/>
<path d="M15.66 12.9282C16.7263 12.8084 17.8331 12.8906 18.9048 12.8911L20.531 12.8921C21.1056 12.8924 21.6955 12.8607 22.2658 12.9368C22.3199 12.9441 22.3199 13.0186 22.2658 13.0259C21.7332 13.0969 21.1837 13.0702 20.647 13.0705L19.021 13.0715C18.479 13.0717 17.9368 13.0725 17.3948 13.0722C16.8177 13.0717 16.2344 13.099 15.66 13.0345C15.5952 13.0272 15.5952 12.9355 15.66 12.9282Z" fill="#B55522"/>
<path d="M15.66 7.60614C16.7263 7.48646 17.8331 7.56864 18.9048 7.56916L20.531 7.56999C21.1056 7.57041 21.6955 7.53872 22.2658 7.61487C22.3199 7.62214 22.3199 7.69653 22.2658 7.7038C21.7332 7.77497 21.1837 7.74827 20.647 7.74858L19.021 7.74941C18.479 7.74962 17.9368 7.75055 17.3948 7.75014C16.8177 7.74962 16.2344 7.77705 15.66 7.71253C15.5952 7.70515 15.5952 7.61342 15.66 7.60614Z" fill="#B55522"/>
<path d="M10.5037 11.0721C10.5037 11.0721 7.88571 10.6981 7.63637 8.08016C7.63637 8.08016 7.26246 10.8853 4.89374 10.8228C5.01841 11.0098 7.44968 11.1344 7.57414 13.5653C7.57414 13.5653 7.5117 10.8851 10.5037 11.0721Z" fill="white"/>
<path d="M6.88745 15.5158C6.88745 15.5158 5.60834 15.3331 5.48648 14.0538C5.48648 14.0538 5.30373 15.4246 4.14638 15.394C4.20726 15.4854 5.39516 15.5462 5.45604 16.7341C5.45604 16.7341 5.42549 15.4244 6.88745 15.5158Z" fill="white"/>
<path d="M11.5554 16.9418C11.5554 16.9418 10.5738 16.8016 10.4802 15.8199C10.4802 15.8199 10.3401 16.8719 9.45183 16.8484C9.49848 16.9185 10.4102 16.9653 10.457 17.8768C10.457 17.8768 10.4335 16.8717 11.5554 16.9418Z" fill="white"/>
<path d="M15.474 42.7882L15.4818 42.7612C15.4507 42.7547 15.4274 42.7271 15.4274 42.694C15.4274 42.6563 15.4582 42.6255 15.496 42.6255C15.5339 42.6255 15.5646 42.6563 15.5646 42.694C15.5646 42.7271 15.5413 42.7547 15.5103 42.7612L15.5016 42.7912C15.6077 42.8059 15.6921 42.8473 15.6921 42.8473L15.6772 42.8929C15.6131 42.8716 15.5574 42.8586 15.5068 42.8533C15.4574 42.848 15.4202 42.8456 15.3898 42.8456C15.3573 42.8456 15.3332 42.8483 15.3058 42.8529L15.2979 42.8034C15.2979 42.8034 15.374 42.78 15.474 42.7882Z" fill="#CEC4AF"/>
</svg>
