<svg width="22" height="22" viewBox="0 0 22 22" fill="none" xmlns="http://www.w3.org/2000/svg">
<path d="M19.2499 11.5701C19.2499 11.3826 19.2499 11.1951 19.2499 11.0001C19.2499 10.8051 19.2499 10.6176 19.2499 10.4226L20.6899 9.16256C20.9554 8.9286 21.1296 8.60833 21.1817 8.25836C21.2339 7.90839 21.1606 7.55125 20.9749 7.25006L19.2049 4.25006C19.0734 4.02226 18.8843 3.83305 18.6566 3.70141C18.4288 3.56977 18.1705 3.50033 17.9074 3.50006C17.7444 3.49881 17.5823 3.52414 17.4274 3.57506L15.6049 4.19006C15.2903 3.98097 14.9621 3.79305 14.6224 3.62756L14.2399 1.73756C14.1714 1.39226 13.9835 1.08209 13.7093 0.861338C13.4351 0.640584 13.0919 0.523316 12.7399 0.530061H9.22995C8.87797 0.523316 8.53483 0.640584 8.26061 0.861338C7.98638 1.08209 7.79853 1.39226 7.72995 1.73756L7.34745 3.62756C7.0054 3.79301 6.67467 3.98092 6.35745 4.19006L4.57245 3.54506C4.41592 3.50428 4.25383 3.48908 4.09245 3.50006C3.8294 3.50033 3.57105 3.56977 3.34332 3.70141C3.11558 3.83305 2.92647 4.02226 2.79495 4.25006L1.02495 7.25006C0.849886 7.5508 0.784834 7.90305 0.840932 8.24648C0.89703 8.58991 1.07079 8.90316 1.33245 9.13256L2.74995 10.4301C2.74995 10.6176 2.74995 10.8051 2.74995 11.0001C2.74995 11.1951 2.74995 11.3826 2.74995 11.5776L1.33245 12.8376C1.0634 13.0686 0.884887 13.3874 0.828594 13.7375C0.772302 14.0876 0.841867 14.4464 1.02495 14.7501L2.79495 17.7501C2.92647 17.9779 3.11558 18.1671 3.34332 18.2987C3.57105 18.4304 3.8294 18.4998 4.09245 18.5001C4.25546 18.5013 4.41758 18.476 4.57245 18.4251L6.39495 17.8101C6.7096 18.0192 7.03783 18.2071 7.37745 18.3726L7.75995 20.2626C7.82853 20.6079 8.01638 20.918 8.29061 21.1388C8.56483 21.3595 8.90797 21.4768 9.25995 21.4701H12.7999C13.1519 21.4768 13.4951 21.3595 13.7693 21.1388C14.0435 20.918 14.2314 20.6079 14.2999 20.2626L14.6824 18.3726C15.0245 18.2071 15.3552 18.0192 15.6724 17.8101L17.4874 18.4251C17.6423 18.476 17.8044 18.5013 17.9674 18.5001C18.2305 18.4998 18.4888 18.4304 18.7166 18.2987C18.9443 18.1671 19.1334 17.9779 19.2649 17.7501L20.9749 14.7501C21.15 14.4493 21.2151 14.0971 21.159 13.7536C21.1029 13.4102 20.9291 13.097 20.6674 12.8676L19.2499 11.5701ZM17.9074 17.0001L15.3349 16.1301C14.7327 16.6401 14.0445 17.0389 13.3024 17.3076L12.7699 20.0001H9.22995L8.69745 17.3376C7.96126 17.0612 7.27673 16.6632 6.67245 16.1601L4.09245 17.0001L2.32245 14.0001L4.36245 12.2001C4.22377 11.4237 4.22377 10.6289 4.36245 9.85256L2.32245 8.00006L4.09245 5.00006L6.66495 5.87006C7.26715 5.35998 7.9554 4.96125 8.69745 4.69256L9.22995 2.00006H12.7699L13.3024 4.66256C14.0386 4.93888 14.7232 5.33692 15.3274 5.84006L17.9074 5.00006L19.6774 8.00006L17.6374 9.80006C17.7761 10.5764 17.7761 11.3712 17.6374 12.1476L19.6774 14.0001L17.9074 17.0001Z" fill="#525252"/>
<path d="M10.9999 15.5001C10.1099 15.5001 9.2399 15.2361 8.49988 14.7417C7.75986 14.2472 7.18308 13.5444 6.84249 12.7221C6.50189 11.8999 6.41278 10.9951 6.58641 10.1222C6.76005 9.24924 7.18863 8.44742 7.81797 7.81808C8.4473 7.18875 9.24913 6.76016 10.122 6.58653C10.995 6.41289 11.8998 6.50201 12.722 6.8426C13.5443 7.1832 14.2471 7.75997 14.7416 8.5C15.236 9.24002 15.4999 10.11 15.4999 11.0001C15.506 11.5927 15.3937 12.1805 15.1697 12.7292C14.9456 13.2779 14.6144 13.7764 14.1953 14.1955C13.7763 14.6145 13.2778 14.9458 12.7291 15.1698C12.1804 15.3938 11.5926 15.5061 10.9999 15.5001ZM10.9999 8.00006C10.6035 7.99083 10.2092 8.06211 9.84106 8.2096C9.47291 8.3571 9.1385 8.57774 8.85806 8.85818C8.57762 9.13861 8.35698 9.47302 8.20949 9.84117C8.06199 10.2093 7.99071 10.6036 7.99995 11.0001C7.99071 11.3966 8.06199 11.7908 8.20949 12.1589C8.35698 12.5271 8.57762 12.8615 8.85806 13.1419C9.1385 13.4224 9.47291 13.643 9.84106 13.7905C10.2092 13.938 10.6035 14.0093 10.9999 14.0001C11.3964 14.0093 11.7907 13.938 12.1588 13.7905C12.527 13.643 12.8614 13.4224 13.1418 13.1419C13.4223 12.8615 13.6429 12.5271 13.7904 12.1589C13.9379 11.7908 14.0092 11.3966 13.9999 11.0001C14.0092 10.6036 13.9379 10.2093 13.7904 9.84117C13.6429 9.47302 13.4223 9.13861 13.1418 8.85818C12.8614 8.57774 12.527 8.3571 12.1588 8.2096C11.7907 8.06211 11.3964 7.99083 10.9999 8.00006Z" fill="#525252"/>
</svg>
