<svg width="24" height="20" viewBox="0 0 24 20" fill="none" xmlns="http://www.w3.org/2000/svg">
<path d="M12.4592 0.660399C12.3261 0.556515 12.1621 0.500092 11.9932 0.500092C11.8243 0.500092 11.6603 0.556515 11.5272 0.660399L0.75 9.0646L1.68203 10.2434L3 9.21572V18.5C3.00081 18.8976 3.15911 19.2787 3.44024 19.5598C3.72137 19.8409 4.10242 19.9992 4.5 20H19.5C19.8976 19.9993 20.2787 19.841 20.5599 19.5599C20.841 19.2788 20.9993 18.8976 21 18.5V9.22255L22.318 10.2501L23.25 9.0712L12.4592 0.660399ZM13.5 18.5H10.5V12.5001H13.5V18.5ZM15 18.5V12.5001C14.9995 12.1024 14.8414 11.7211 14.5602 11.4399C14.279 11.1587 13.8977 11.0005 13.5 11.0001H10.5C10.1023 11.0004 9.721 11.1586 9.43978 11.4398C9.15856 11.721 9.0004 12.1023 9 12.5001V18.5H4.5V8.04617L12 2.20367L19.5 8.05405V18.5H15Z" fill="white"/>
</svg>
