<svg width="22" height="22" viewBox="0 0 22 22" fill="none" xmlns="http://www.w3.org/2000/svg">
<path d="M19.25 20V11H13.25V20H10.25V8H4.25V20H2V0.5H0.5V20C0.5 20.3978 0.658035 20.7794 0.93934 21.0607C1.22064 21.342 1.60218 21.5 2 21.5H21.5V20H19.25ZM8.75 20H5.75V9.5H8.75V20ZM17.75 20H14.75V12.5H17.75V20Z" fill="#525252"/>
<path d="M16.0892 9.5C15.7711 9.50015 15.4614 9.39858 15.2052 9.21012L7.40307 3.49025L5.18143 6.5L3.97805 5.60488L6.21395 2.60488C6.44648 2.29175 6.79194 2.08163 7.17693 2.01917C7.56192 1.9567 7.9561 2.04682 8.2757 2.27037L16.0917 8.00037L18.7951 4.3544L20 5.24795L17.2966 8.89377C17.1568 9.08216 16.9747 9.23513 16.765 9.34041C16.5553 9.44569 16.3238 9.50035 16.0892 9.5Z" fill="#525252"/>
</svg>
