<svg width="22" height="22" viewBox="0 0 22 22" fill="none" xmlns="http://www.w3.org/2000/svg">
<path d="M19.25 15.5V11.75C19.2495 11.3523 19.0914 10.9711 18.8102 10.6898C18.5289 10.4086 18.1477 10.2505 17.75 10.25H11.75V6.5H14C14.3977 6.49954 14.779 6.34136 15.0602 6.06016C15.3414 5.77895 15.4995 5.39768 15.5 5V2C15.4995 1.60232 15.3414 1.22105 15.0602 0.939844C14.779 0.658638 14.3977 0.500457 14 0.5H8C7.60232 0.500457 7.22105 0.658638 6.93984 0.939844C6.65864 1.22105 6.50046 1.60232 6.5 2V5C6.50046 5.39768 6.65864 5.77895 6.93984 6.06016C7.22105 6.34136 7.60232 6.49954 8 6.5H10.25V10.25H4.25C3.85232 10.2505 3.47105 10.4086 3.18984 10.6898C2.90864 10.9711 2.75046 11.3523 2.75 11.75V15.5H0.5V21.5H6.5V15.5H4.25V11.75H10.25V15.5H8V21.5H14V15.5H11.75V11.75H17.75V15.5H15.5V21.5H21.5V15.5H19.25ZM8 2H14V5H8V2ZM5 20H2V17H5V20ZM12.5 20H9.5V17H12.5V20ZM20 20H17V17H20V20Z" fill="#525252"/>
</svg>
