<svg width="20" height="22" viewBox="0 0 20 22" fill="none" xmlns="http://www.w3.org/2000/svg">
<path d="M13.5 15.5V20H1.5V2H9V0.5H1.5C1.10218 0.5 0.720644 0.658035 0.43934 0.93934C0.158035 1.22064 0 1.60218 0 2V20C0 20.3978 0.158035 20.7794 0.43934 21.0607C0.720644 21.342 1.10218 21.5 1.5 21.5H13.5C13.8978 21.5 14.2794 21.342 14.5607 21.0607C14.842 20.7794 15 20.3978 15 20V15.5H13.5Z" fill="#525252"/>
<path d="M19.155 3.32L16.68 0.845C16.4557 0.625128 16.1541 0.501971 15.84 0.501971C15.5259 0.501971 15.2243 0.625128 15 0.845L4.5 11.345V15.5H8.6475L19.1475 5C19.3674 4.77569 19.4905 4.4741 19.4905 4.16C19.4905 3.8459 19.3674 3.54431 19.1475 3.32H19.155ZM8.025 14H6V11.975L13.08 4.8875L15.1125 6.92L8.025 14ZM16.17 5.8625L14.1375 3.83L15.84 2.1275L17.8725 4.16L16.17 5.8625Z" fill="#525252"/>
</svg>
