<svg width="32" height="32" viewBox="0 0 32 32" fill="none" xmlns="http://www.w3.org/2000/svg">
<rect width="32" height="32" rx="8" fill="#EBEFFD"/>
<path d="M8.5 27.6996C8.1 27.6996 7.75 27.5496 7.45 27.2496C7.15 26.9496 7 26.5996 7 26.1996V11.1996C7 10.7996 7.15 10.4496 7.45 10.1496C7.75 9.84961 8.1 9.69961 8.5 9.69961H18.625L17.125 11.1996H8.5V26.1996H23.5V17.4996L25 15.9996V26.1996C25 26.5996 24.85 26.9496 24.55 27.2496C24.25 27.5496 23.9 27.6996 23.5 27.6996H8.5ZM20.55 9.89961L21.625 10.9496L14.5 18.0496V20.1996H16.625L23.775 13.0496L24.825 14.0996L17.25 21.6996H13V17.4496L20.55 9.89961ZM24.825 14.0996L20.55 9.89961L23.05 7.39961C23.3333 7.11628 23.6875 6.97461 24.1125 6.97461C24.5375 6.97461 24.8917 7.12461 25.175 7.42461L27.275 9.54961C27.5583 9.84961 27.7 10.2038 27.7 10.6121C27.7 11.0204 27.55 11.3663 27.25 11.6496L24.825 14.0996Z" fill="#1E4AE6"/>
</svg>
