<svg width="58" height="58" viewBox="0 0 58 58" fill="none" xmlns="http://www.w3.org/2000/svg">
<rect opacity="0.01" x="1" y="1" width="56" height="56" fill="#D8D8D8" stroke="#979797"/>
<g clip-path="url(#clip0_1_2898)">
<path opacity="0.5" d="M56.9032 27.8004C56.8708 27.7736 56.8237 27.7651 56.787 27.7775C56.7422 27.7913 56.7011 27.8033 56.6624 27.8146L56.6435 27.8201C56.548 27.8481 56.4654 27.8721 56.3837 27.9049C55.0923 28.4186 54.0755 29.2985 53.2754 30.595C53.0778 30.9153 52.9247 31.2483 52.8028 31.5804C53.0027 30.4634 53.049 30.0283 53.0844 28.7785C53.0861 28.726 53.0861 28.6727 53.0861 28.6197C53.0861 28.4751 53.0861 28.3385 53.1177 28.2139C53.1555 28.0663 53.2316 27.919 53.3052 27.7765C53.3259 27.7361 53.3467 27.6958 53.3638 27.6604C53.3697 27.6534 53.3889 27.6417 53.3964 27.6405C53.7657 27.5841 54.0923 27.4271 54.3951 27.1608C54.7001 26.8911 54.951 26.5609 55.1409 26.1792C55.8224 24.8113 56.1634 23.2992 56.1548 21.6857C56.154 21.53 56.1358 21.3785 56.1157 21.2137C56.1065 21.1398 56.0973 21.0643 56.0895 20.9861C56.0852 20.9432 56.0588 20.905 56.0205 20.8865C55.9828 20.8682 55.9373 20.8695 55.8991 20.8925C55.8761 20.907 55.8564 20.9187 55.8385 20.9291C55.8039 20.9498 55.7775 20.9659 55.7525 20.9839C55.1712 21.401 54.6584 21.9203 54.2284 22.527C53.5265 23.5186 53.1183 24.6398 53.0084 25.8732C52.9974 25.7357 52.9864 25.5982 52.9753 25.4607L52.9714 25.4109C52.9283 24.8718 52.8838 24.3144 52.8475 23.7662C52.8383 23.6274 52.8117 23.4924 52.7859 23.3617C52.7362 23.1106 52.6892 22.8734 52.7644 22.6248C52.7815 22.5686 52.796 22.512 52.8104 22.4556C52.8459 22.3158 53.0175 22.1005 53.281 21.865L53.2909 21.8561C53.3881 21.7737 53.8873 21.3165 54.1706 20.4122C54.458 19.4934 54.4363 18.5334 54.4204 17.8324L54.42 17.8137C54.3989 16.8501 54.2949 16.124 54.0828 15.4589C54.0553 15.3739 54.0228 15.29 53.9883 15.2019C53.9704 15.156 53.9521 15.1086 53.9333 15.059C53.9179 15.0169 53.8808 14.9864 53.8374 14.9792L53.8162 14.9773C53.7786 14.9773 53.7434 14.9941 53.7196 15.0233L53.5135 15.2747C52.5254 16.481 52.0399 17.8959 52.0703 19.4801C52.0756 19.7591 52.0964 20.0453 52.1334 20.3408C51.8822 19.4732 51.5877 18.6286 51.2527 17.8162C51.2458 17.7984 51.2413 17.7763 51.2408 17.7577L51.2384 17.6466C51.235 17.4863 51.2314 17.3204 51.2382 17.1573C51.2392 17.1302 51.2567 17.0817 51.2932 17.0339C51.3449 16.9654 51.4023 16.8986 51.4618 16.829C51.5631 16.7109 51.6678 16.589 51.7507 16.4499C52.0177 16.0022 52.143 15.4734 52.1451 14.7854C52.1487 13.9755 52.024 13.1232 51.7521 12.1031C51.6035 11.5465 51.3793 10.8235 50.9617 10.168C50.9334 10.1239 50.9017 10.0824 50.868 10.0385C50.8528 10.019 50.8368 9.99827 50.8206 9.97598C50.7969 9.94415 50.7642 9.9256 50.7114 9.9256C50.6693 9.92869 50.6317 9.95266 50.6108 9.9899C50.0866 10.9369 49.8255 11.9486 49.8131 13.0828C49.8026 14.0285 49.9501 14.8422 50.1351 15.4854C49.6643 14.6244 49.1412 13.7927 48.5741 13.0037L48.5611 12.9857C48.5482 12.9686 48.5428 12.9602 48.5437 12.9662C48.5081 12.7109 48.4834 12.5066 48.4662 12.3288C48.4666 12.3261 48.47 12.3112 48.4965 12.2668C48.5339 12.2029 48.575 12.1403 48.6186 12.0741C48.7062 11.9408 48.7966 11.8029 48.8545 11.6486C49.0293 11.1826 49.0686 10.6542 48.9742 10.0336C48.7671 8.66007 48.1622 7.42328 47.1254 6.25234C47.0187 6.13211 46.9007 6.0258 46.776 5.91344L46.7415 5.88213C46.6927 5.83793 46.6426 5.7927 46.592 5.74489C46.5599 5.71422 46.5138 5.70275 46.4691 5.7159C46.4269 5.7293 46.3943 5.76435 46.3843 5.8079L46.3616 5.90738C46.3462 5.97336 46.3342 6.02542 46.3253 6.07773C46.1858 6.91145 46.1959 7.80445 46.3566 8.808C46.516 9.80331 46.8335 10.6618 47.3208 11.4075C46.5901 10.5457 45.8794 9.82199 45.1366 9.18066C45.1333 9.17628 45.1284 9.16301 45.128 9.15966C45.186 8.65904 45.0627 8.18742 44.7507 7.71785C44.3409 7.10075 43.7715 6.63041 43.0584 6.32012C42.6316 6.13482 42.1894 5.97078 41.7565 5.81009C41.5491 5.73304 41.3418 5.65624 41.1282 5.57389C40.9136 5.48846 40.8218 5.47326 40.772 5.51939C40.7079 5.57918 40.7233 5.63021 40.7513 5.72298L40.7603 5.75327C41.022 6.63569 41.3693 7.3336 41.8223 7.88679C42.6539 8.90336 43.6265 9.41982 44.7941 9.46544C44.835 9.46789 44.8674 9.47923 44.8807 9.48954C45.0451 9.61273 45.1661 9.7113 45.2731 9.80898C45.6114 10.1185 45.9445 10.4482 46.2705 10.7955C45.7857 10.494 45.1931 10.3579 44.5258 10.3917C44.1606 10.4101 43.7981 10.4637 43.4475 10.5155L43.4341 10.5176C43.3305 10.5328 43.2274 10.5479 43.1245 10.5624C42.8993 10.593 42.6722 10.6329 42.4716 10.668C42.3904 10.6825 42.1964 10.7267 42.1517 10.8209C42.1363 10.8531 42.1376 10.8884 42.1551 10.9205C42.1705 10.9485 42.1875 10.9748 42.206 10.9987C42.785 11.7506 43.4453 12.2458 44.2249 12.5124C45.1755 12.8392 46.0485 12.8123 46.833 12.4279C46.953 12.3618 47.0977 12.3283 47.263 12.3283C47.3877 12.3283 47.4813 12.348 47.5123 12.3551C47.5588 12.3628 47.6219 12.3889 47.6348 12.4056C48.1226 13.0477 48.5857 13.7335 49.0181 14.454C48.6528 14.0983 48.1763 13.8585 47.5273 13.7023C46.9584 13.5666 46.3768 13.5375 45.8145 13.5092L45.6262 13.4996C45.4498 13.4906 45.2734 13.4794 45.0918 13.4679L44.7872 13.4491C44.7478 13.4491 44.7104 13.4682 44.6875 13.4999C44.6621 13.534 44.6561 13.5784 44.671 13.6182C44.6832 13.6514 44.7055 13.7101 44.7169 13.7296C45.31 14.7226 46.0064 15.4095 46.8458 15.8295C47.6663 16.2398 48.4077 16.3483 49.1555 16.1693C49.242 16.1485 49.3422 16.1374 49.4459 16.1374C49.764 16.1374 49.9858 16.2345 50.0324 16.3245C50.4438 17.1741 50.8109 18.0569 51.1276 18.9573C50.7955 18.499 50.331 18.1267 49.743 17.8482C49.1588 17.5722 48.5505 17.3199 47.9521 17.0716C47.6949 16.9652 47.4366 16.8583 47.1796 16.7491C47.1413 16.7323 47.0961 16.7358 47.0605 16.7594C47.0255 16.7827 47.0046 16.8216 47.0046 16.8635C47.0046 16.9439 47.8581 19.315 49.0977 20.2494C49.6033 20.6306 50.2261 21.0227 51.0115 21.0411C51.2466 21.0459 51.4896 21.0791 51.6732 21.288C51.7012 21.3213 51.7384 21.3472 51.779 21.3609C51.8417 21.3816 51.8589 21.42 51.8898 21.5509C52.1442 22.6199 52.3294 23.7218 52.4435 24.8407C52.409 24.7271 52.369 24.6124 52.323 24.4963C52.0456 23.7921 51.5787 23.1759 50.8537 22.557C50.48 22.2367 50.0886 21.9265 49.7102 21.6264L49.6921 21.6122C49.5198 21.4755 49.3478 21.3393 49.1763 21.2014C49.1409 21.1729 49.1064 21.1436 49.0664 21.1093L48.9594 21.0175C48.9219 20.9858 48.8662 20.9793 48.8224 21.0012C48.7775 21.024 48.7506 21.0711 48.7541 21.1215C48.7593 21.1972 48.7636 21.2687 48.7676 21.3374L48.7696 21.3694C48.7781 21.5108 48.7861 21.6442 48.8004 21.7759C48.9346 23.0581 49.3155 24.1287 49.9649 25.0486C50.3669 25.6173 50.9437 26.3124 51.843 26.6411C52.0618 26.7215 52.2205 26.8433 52.3906 27.0618C52.551 27.2664 52.5809 27.4534 52.5772 27.6887C52.5619 28.6743 52.4918 29.6521 52.3681 30.6097C52.3391 30.3432 52.2778 30.0689 52.1837 29.7838C51.9889 29.1936 51.6854 28.6198 51.2556 28.0297C50.8846 27.5186 50.4985 27.0057 50.1252 26.5095L50.1003 26.4764C49.9523 26.2799 49.8044 26.0831 49.6603 25.8906C49.6333 25.851 49.5943 25.8369 49.5718 25.829C49.5398 25.8134 49.5017 25.8119 49.4679 25.8263C49.4347 25.8405 49.4092 25.8684 49.398 25.9027L49.3936 25.9161C49.3874 25.9342 49.3825 25.9501 49.38 25.9661C49.1225 27.5029 49.2805 28.8797 49.8627 30.1758C50.1471 30.8095 50.5285 31.527 51.201 32.0432C51.508 32.2789 51.7504 32.6096 51.8835 32.9741C51.9117 33.0526 51.9107 33.0866 51.9075 33.0998C51.6228 34.2798 51.2511 35.4181 50.7991 36.4953C50.9155 35.9276 50.9075 35.3312 50.7746 34.7133C50.586 33.8376 50.2619 32.9889 49.9728 32.2622L49.8861 32.0445C49.7506 31.704 49.6141 31.3607 49.4732 31.0049C49.4553 30.9594 49.4121 30.9283 49.3546 30.9255C49.3093 30.9255 49.2676 30.9514 49.246 30.9934L49.2005 31.079C49.1806 31.1165 49.1619 31.1514 49.1459 31.1875C48.5643 32.5011 48.3679 33.8477 48.5624 35.1898C48.7014 36.1496 48.937 36.8368 49.3263 37.4182C49.5277 37.7187 49.7192 38.0535 49.7539 38.4652C49.7622 38.5626 49.7583 38.6297 49.7149 38.7062C49.2239 39.5668 48.6735 40.379 48.0706 41.1336C48.073 41.1295 48.0751 41.1254 48.0775 41.1212C48.5112 40.3278 48.5243 39.47 48.48 38.7354C48.4418 38.1057 48.3697 37.4768 48.3003 36.8689L48.2963 36.8337C48.2684 36.5902 48.2406 36.3467 48.2152 36.1028C48.2005 35.9645 48.1842 35.8263 48.1673 35.686L48.145 35.496C48.1402 35.454 48.1145 35.4177 48.0777 35.3994C48.0092 35.3636 47.8984 35.4188 47.7787 35.5606C46.956 36.5346 46.4454 37.6353 46.2611 38.8323C46.0699 40.0733 46.1735 41.1354 46.5783 42.0792C46.5891 42.1043 46.5888 42.1556 46.5887 42.1727L46.5669 42.7157C46.5637 42.7548 46.5431 42.7989 46.5261 42.8152C45.7046 43.6072 44.8001 44.2957 43.8295 44.8687C44.2889 44.453 44.6192 43.9106 44.8333 43.2233C45.0706 42.4615 45.1923 41.6686 45.3104 40.8999L45.3207 40.8314C45.3625 40.5613 45.4062 40.2918 45.4507 40.0163L45.501 39.7048C45.5083 39.6595 45.4904 39.6141 45.4552 39.5869C45.4203 39.5591 45.3699 39.5524 45.3297 39.5696L45.2858 39.5878C45.2389 39.607 45.1981 39.6241 45.1596 39.6439C43.3247 40.5612 42.1168 42.7008 42.2875 44.7311C42.3143 45.0491 42.2852 45.3478 42.1985 45.6437C42.1903 45.6706 42.1643 45.6999 42.1538 45.7048C41.2823 46.0726 40.4536 46.3411 39.6198 46.5253C39.577 46.5352 39.543 46.5659 39.5291 46.6073C39.5151 46.6489 39.5236 46.6941 39.5521 46.7281C39.6428 46.8356 39.7217 46.9512 39.7866 47.0722C39.8132 47.1217 39.8767 47.1471 39.9242 47.1347C40.6035 46.9796 41.265 46.7787 41.891 46.5372C41.9416 46.5168 41.9803 46.5072 42.0164 46.5131C42.1557 46.5316 42.3029 46.5602 42.4662 46.6008C42.4999 46.6091 42.5279 46.6247 42.5284 46.6233C42.8852 47.3353 43.4985 47.7889 44.4039 48.0097C44.6008 48.0569 44.804 48.0919 45.0076 48.1133C45.2208 48.1358 45.4586 48.1473 45.7141 48.1473C46.0681 48.1473 46.3205 48.1254 46.3236 48.1251C47.1084 48.0372 47.7785 47.8604 48.3721 47.5845C48.6157 47.4715 48.8932 47.3194 49.1065 47.0476C49.1473 46.9955 49.1405 46.9204 49.091 46.8767C48.488 46.3442 47.8741 45.9572 47.2138 45.6938C46.2356 45.3046 45.3445 45.1992 44.4711 45.3674C44.3405 45.3928 44.2131 45.4247 44.0893 45.4615C44.9063 44.9726 45.6886 44.398 46.4274 43.7434C46.4416 43.7305 46.4649 43.7192 46.483 43.7159C46.6039 43.6958 46.7644 43.6711 46.9287 43.6592C46.9439 43.6592 46.9632 43.6666 46.9654 43.6674C47.4105 44.166 47.984 44.4084 48.7187 44.4084C48.7561 44.4084 48.7937 44.4077 48.8312 44.4064C49.63 44.3806 50.433 44.1609 51.2184 43.7531C51.7892 43.455 52.3842 43.108 52.8666 42.5905C52.9736 42.4754 53.0691 42.3453 53.1534 42.2305L53.1617 42.2192C53.199 42.1686 53.2367 42.1176 53.2755 42.0672C53.2966 42.04 53.3055 42.0049 53.2999 41.9696C53.294 41.9356 53.2743 41.9053 53.2407 41.8834C53.2322 41.8788 53.0279 41.7691 52.8414 41.6968C51.5925 41.2138 50.3315 41.1643 49.1287 41.5523C48.7349 41.6789 48.3643 41.8691 48.0034 42.132C48.6708 41.3555 49.2887 40.5043 49.8497 39.5883C49.8558 39.5787 49.8717 39.5525 49.8769 39.5477C49.9259 39.5164 49.9761 39.4868 50.0262 39.4575C50.1159 39.4048 50.2089 39.3503 50.2961 39.2854C50.3698 39.2304 50.3905 39.2289 50.4649 39.2769C50.5702 39.3453 50.6926 39.3809 50.7993 39.4088C51.4237 39.5689 52.0531 39.4891 52.7492 39.1619C53.3852 38.8635 53.8741 38.3917 54.3079 37.9266C54.9389 37.248 55.3513 36.6358 55.6056 35.9997C55.6591 35.8662 55.6972 35.7282 55.7368 35.5839C55.7532 35.5233 55.7699 35.4628 55.7877 35.4032C55.8071 35.3393 55.7731 35.2717 55.71 35.2494L55.6578 35.2454C55.4004 35.2454 53.1049 35.2831 51.7623 36.5872C51.4702 36.8709 51.2083 37.1725 50.9693 37.5026C51.5004 36.3766 51.9508 35.19 52.3139 33.9582L52.3191 33.9402C52.3235 33.9251 52.3301 33.9023 52.3345 33.8961L52.6856 33.4134C52.6988 33.3941 52.7003 33.3941 52.7209 33.3941C52.7301 33.3941 52.7401 33.3947 52.7515 33.3954L52.8266 33.3999C53.0879 33.4161 53.2418 33.4138 53.3683 33.3939C53.8683 33.3149 54.3196 33.0629 54.7479 32.6232C55.7496 31.5949 56.439 30.312 56.8556 28.7015C56.9003 28.529 56.9128 28.3548 56.9262 28.17C56.9321 28.0862 56.9387 27.9999 56.9482 27.9107C56.9522 27.8679 56.9354 27.8271 56.9032 27.8004Z" fill="#44AFA7"/>
<path opacity="0.5" d="M18.3287 46.5251C17.4957 46.3409 16.6672 46.0725 15.7954 45.7046C15.785 45.6997 15.7591 45.6705 15.751 45.6442C15.6641 45.3477 15.635 45.049 15.6618 44.7309C15.8325 42.7005 14.6246 40.5611 12.7901 39.6439C12.7511 39.624 12.7104 39.6069 12.6635 39.5877L12.62 39.5696C12.5787 39.552 12.5284 39.5593 12.495 39.5861C12.459 39.614 12.4411 39.6593 12.4484 39.7048L12.4986 40.0161C12.5432 40.2916 12.5868 40.5612 12.6286 40.831L12.6392 40.9016C12.757 41.6685 12.8788 42.4615 13.116 43.2233C13.3301 43.9106 13.6604 44.453 14.1199 44.8686C13.1492 44.2957 12.2448 43.6072 11.4233 42.8153C11.4061 42.7987 11.3856 42.7546 11.3827 42.7183L11.3606 42.1749C11.3605 42.1556 11.3603 42.1043 11.3712 42.0789C11.7758 41.1354 11.8794 40.0733 11.6883 38.8323C11.5039 37.6353 10.9934 36.5346 10.1707 35.5606C10.0744 35.4465 9.98941 35.3888 9.91809 35.3888C9.90071 35.3888 9.88501 35.3923 9.87265 35.3987C9.8348 35.4175 9.80919 35.454 9.80416 35.4961L9.78215 35.6857C9.76516 35.8264 9.74881 35.9645 9.73413 36.1029C9.70877 36.3467 9.68097 36.5901 9.65303 36.8337L9.64904 36.8689C9.57953 37.477 9.50744 38.1058 9.46933 38.7354C9.42505 39.4699 9.43818 40.3277 9.87188 41.1212C9.87419 41.1252 9.87625 41.1295 9.87857 41.1335C9.27572 40.3789 8.7254 39.5668 8.23442 38.7063C8.19104 38.6297 8.1873 38.5626 8.19541 38.4652C8.2303 38.0532 8.4216 37.7184 8.62306 37.4182C9.01221 36.8368 9.24779 36.1496 9.38695 35.1898C9.58146 33.8476 9.38502 32.5012 8.80341 31.1876C8.78745 31.1514 8.76878 31.1165 8.74883 31.079L8.70339 30.9932C8.68163 30.9513 8.63516 30.9237 8.58611 30.9259C8.53719 30.9285 8.49407 30.9595 8.47631 31.0046C8.33522 31.3608 8.19876 31.7039 8.06321 32.0445L7.97657 32.2622C7.68744 32.9891 7.36317 33.8377 7.17471 34.7133C7.04186 35.3312 7.03375 35.9276 7.15025 36.4953C6.69815 35.4182 6.3265 34.28 6.04188 33.0997C6.03866 33.0866 6.03763 33.0526 6.06582 32.9741C6.19893 32.6094 6.44133 32.2788 6.74848 32.0431C7.42084 31.5269 7.80227 30.8094 8.08664 30.1757C8.66889 28.8796 8.82684 27.5027 8.56938 25.9661C8.56667 25.95 8.56178 25.934 8.55599 25.9166L8.55136 25.9027C8.54016 25.8683 8.51467 25.8405 8.48094 25.8259C8.44798 25.8121 8.40653 25.8147 8.38092 25.8273C8.35517 25.8367 8.31616 25.851 8.2908 25.8883C8.14508 26.0831 7.99717 26.2797 7.84913 26.4763L7.82428 26.5094C7.45096 27.0056 7.0649 27.5185 6.6939 28.0294C6.26407 28.6197 5.96052 29.1935 5.76575 29.7837C5.67177 30.0687 5.61037 30.3431 5.58141 30.6095C5.4577 29.652 5.38754 28.6743 5.37222 27.6886C5.36861 27.4533 5.39848 27.2663 5.55901 27.0615C5.72893 26.8432 5.88766 26.7213 6.1065 26.6409C7.00568 26.3121 7.58253 25.6171 7.98455 25.0485C8.634 24.1286 9.01492 23.0581 9.14905 21.776C9.16334 21.644 9.17145 21.5105 9.17982 21.3693L9.18188 21.3372C9.18587 21.2685 9.19012 21.197 9.19553 21.1213C9.19887 21.071 9.17197 21.0238 9.12704 21.001C9.08353 20.9791 9.02779 20.9856 8.98994 21.0177L8.88322 21.1091C8.84306 21.1434 8.80869 21.1728 8.77303 21.2014C8.60169 21.3392 8.4297 21.4755 8.25733 21.6122L8.23931 21.6264C7.86097 21.9264 7.46963 22.2365 7.09592 22.5569C6.37078 23.1759 5.90388 23.7921 5.62646 24.4963C5.58063 24.6124 5.54047 24.7272 5.50597 24.8409C5.62003 23.7219 5.80527 22.6199 6.05964 21.5507C6.09054 21.4199 6.10779 21.3815 6.17125 21.3607C6.21116 21.3471 6.24836 21.3211 6.27552 21.2889C6.45999 21.079 6.70291 21.0457 6.93823 21.041C7.72349 21.0225 8.34629 20.6304 8.85181 20.2493C10.0914 19.3148 10.9448 16.9438 10.9448 16.8634C10.9448 16.8215 10.924 16.7824 10.8886 16.7589C10.8537 16.7358 10.8066 16.7326 10.7711 16.7484C10.5128 16.8581 10.2546 16.9649 9.98722 17.0756C9.39892 17.3198 8.79067 17.5721 8.20649 17.848C7.61857 18.1264 7.15398 18.4988 6.82186 18.9571C7.13841 18.0567 7.50542 17.174 7.91633 16.3258C7.96357 16.2343 8.1855 16.1371 8.50373 16.1371C8.60722 16.1371 8.70751 16.1482 8.79414 16.1691C9.54181 16.3484 10.2832 16.2397 11.1037 15.8293C11.9432 15.4092 12.6396 14.7224 13.2328 13.729C13.2441 13.7098 13.2664 13.6512 13.2784 13.6183C13.2934 13.5781 13.2874 13.5338 13.2624 13.5001C13.2392 13.4682 13.2021 13.4491 13.1549 13.4491C13.1545 13.4491 13.1543 13.4491 13.1539 13.4491L12.8575 13.4678C12.6759 13.4793 12.4995 13.4905 12.3232 13.4995L12.1348 13.509C11.5725 13.5374 10.9909 13.5665 10.4219 13.7022C9.77301 13.8584 9.29658 14.0982 8.93124 14.4538C9.36365 13.7334 9.82669 13.0478 10.3145 12.4057C10.3276 12.3887 10.3905 12.3627 10.4422 12.3541C10.4679 12.348 10.5616 12.3283 10.6862 12.3283C10.8515 12.3283 10.9962 12.3619 11.1189 12.4294C11.8984 12.811 12.7737 12.8393 13.7241 12.5126C14.5037 12.246 15.164 11.7507 15.7428 10.9991C15.7616 10.9749 15.7786 10.9485 15.794 10.9206C15.8116 10.8886 15.8128 10.8532 15.7974 10.821C15.7526 10.727 15.5587 10.6828 15.4771 10.6681C15.2768 10.633 15.0498 10.5931 14.8248 10.5625C14.7217 10.5481 14.6184 10.533 14.5149 10.5177L14.5017 10.5156C14.151 10.4638 13.7885 10.4102 13.4233 10.3918C12.756 10.3577 12.1634 10.494 11.6785 10.7958C12.0046 10.4484 12.3377 10.1187 12.676 9.8091C12.783 9.71142 12.904 9.61298 13.0689 9.4894C13.0817 9.47961 13.1141 9.46814 13.1539 9.46582C14.3226 9.42007 15.2952 8.90361 16.1268 7.88716C16.5798 7.33384 16.9271 6.63594 17.1888 5.75352L17.1978 5.72323C17.2258 5.63046 17.2412 5.57943 17.177 5.51964C17.1274 5.4735 17.0401 5.48716 16.8133 5.57711C16.6073 5.65636 16.4001 5.73328 16.1873 5.81228C15.7598 5.9709 15.3176 6.13494 14.8908 6.32024C14.1777 6.63053 13.6082 7.10087 13.1984 7.71797C12.8864 8.18754 12.763 8.65929 12.8211 9.15772C12.8207 9.16326 12.8158 9.17653 12.8151 9.17808C12.0706 9.82147 11.359 10.5458 10.6283 11.4079C11.1155 10.6621 11.4331 9.80356 11.5925 8.80825C11.7531 7.80482 11.7633 6.9117 11.6238 6.07798C11.6149 6.02579 11.6029 5.97361 11.5876 5.90828L11.5648 5.80764C11.5545 5.76447 11.5221 5.72955 11.4795 5.71615C11.4369 5.70352 11.3891 5.71473 11.3573 5.74501C11.3063 5.79308 11.2564 5.83843 11.2076 5.8825L11.1732 5.91356C11.0483 6.02618 10.9304 6.13249 10.8237 6.25272C9.78679 7.42366 9.18201 8.66045 8.97488 10.0338C8.88052 10.6545 8.91965 11.183 9.0946 11.6489C9.15253 11.8033 9.2429 11.9412 9.33288 12.078C9.37407 12.1405 9.41527 12.2033 9.45299 12.2677C9.48079 12.314 9.48311 12.326 9.48298 12.3238C9.46586 12.5074 9.44127 12.712 9.40806 12.9576C9.40664 12.9607 9.40201 12.968 9.38721 12.9875L9.37523 13.0042C8.80817 13.7932 8.28501 14.625 7.81424 15.4859C7.99936 14.8429 8.14675 14.029 8.13633 13.0833C8.12371 11.9489 7.86277 10.9373 7.33832 9.99002C7.3176 9.95316 7.28001 9.9292 7.22736 9.92559C7.18913 9.92559 7.15231 9.94453 7.12824 9.97687C7.11253 9.99878 7.09657 10.0194 7.08138 10.039C7.04752 10.0828 7.01585 10.1243 6.98753 10.1686C6.56993 10.8241 6.34594 11.5469 6.19725 12.1034C5.9255 13.1241 5.80063 13.9764 5.80424 14.7858C5.8063 15.4737 5.93155 16.0026 6.19854 16.4501C6.28157 16.5894 6.3861 16.7113 6.49115 16.834C6.54689 16.8991 6.60417 16.9659 6.65605 17.0345C6.69235 17.0822 6.70986 17.1307 6.71089 17.1578C6.71771 17.3209 6.71411 17.4868 6.71063 17.6471L6.70819 17.7579C6.7078 17.777 6.70342 17.7989 6.69686 17.8156C6.36164 18.6286 6.06698 19.4735 5.8157 20.3413C5.85264 20.0458 5.8735 19.7597 5.87877 19.4806C5.90915 17.8964 5.42371 16.4817 4.43557 15.2752L4.2296 15.024C4.20579 14.9945 4.17052 14.9778 4.13293 14.9778L4.11233 14.9796C4.0683 14.9869 4.03123 15.0175 4.01591 15.0591C3.99712 15.1092 3.97871 15.1565 3.96081 15.2022C3.92631 15.2906 3.89374 15.3744 3.8662 15.4596C3.65418 16.1244 3.55016 16.8506 3.52905 17.814L3.52866 17.8328C3.51283 18.5336 3.49107 19.4938 3.77866 20.4125C4.06174 21.317 4.56096 21.7741 4.65776 21.8561L4.66806 21.8654C4.93157 22.1008 5.10317 22.3162 5.1387 22.456C5.15299 22.5124 5.16754 22.569 5.18453 22.6249C5.25971 22.8737 5.21272 23.1108 5.162 23.3669C5.13677 23.4961 5.11051 23.6296 5.10137 23.7666C5.06507 24.3148 5.02053 24.8722 4.9774 25.4112L4.97354 25.4611C4.96247 25.5986 4.9514 25.7361 4.94045 25.8736C4.83052 24.6401 4.42244 23.5189 3.72034 22.5274C3.29038 21.9207 2.77778 21.4017 2.19643 20.9843C2.17133 20.9662 2.14494 20.9501 2.10966 20.9291C2.09254 20.9192 2.07272 20.9073 2.04865 20.8923C2.01234 20.8705 1.96574 20.8686 1.92828 20.8869C1.88992 20.9055 1.86353 20.9436 1.85915 20.9866C1.8513 21.0646 1.84216 21.1401 1.83251 21.2184C1.81307 21.3788 1.79466 21.5304 1.79389 21.686C1.78526 23.2996 2.12627 24.8116 2.80777 26.1796C2.99765 26.5613 3.24855 26.8914 3.55377 27.1613C3.85641 27.4274 4.183 27.5843 4.55156 27.6408C4.55967 27.6422 4.57898 27.6539 4.58194 27.6562C4.60189 27.6963 4.62262 27.7365 4.64334 27.7768C4.71698 27.9192 4.79306 28.0665 4.83091 28.2142C4.86244 28.339 4.86244 28.4755 4.86244 28.6201C4.86244 28.673 4.86244 28.7264 4.86412 28.7787C4.89952 30.0286 4.94599 30.4639 5.14578 31.5807C5.02387 31.2487 4.87081 30.9157 4.67321 30.5954C3.87302 29.2989 2.85643 28.4189 1.56539 27.9054C1.48326 27.8723 1.40087 27.8485 1.30535 27.8206L1.2863 27.815C1.24755 27.8036 1.20649 27.7915 1.16259 27.7781C1.12294 27.7651 1.07776 27.774 1.04545 27.8008C1.01326 27.8275 0.996399 27.8683 1.00065 27.9108C1.01017 27.9995 1.01674 28.0857 1.02279 28.1698C1.03605 28.3544 1.04854 28.5286 1.0932 28.701C1.50978 30.3116 2.19926 31.5944 3.20091 32.6228C3.6292 33.0625 4.08053 33.3145 4.58065 33.3935C4.70681 33.4133 4.86103 33.4157 5.12209 33.3995L5.19727 33.395C5.20873 33.3943 5.21877 33.3937 5.22791 33.3937C5.24851 33.3937 5.25018 33.3937 5.26447 33.4148L5.61423 33.8956C5.61874 33.9019 5.6253 33.9247 5.62981 33.9404L5.63496 33.9577C5.99798 35.1896 6.44841 36.3761 6.97955 37.5022C6.7405 37.1719 6.47853 36.8704 6.18657 36.5868C4.84391 35.2827 2.54838 35.245 2.29105 35.245L2.25899 35.2452L2.23878 35.249C2.1757 35.2714 2.14159 35.3389 2.16103 35.4025C2.17892 35.4624 2.19566 35.5229 2.21484 35.5941C2.25152 35.7277 2.28963 35.8657 2.34305 35.9992C2.59742 36.6355 3.00975 37.2476 3.64092 37.9262C4.07461 38.3913 4.56353 38.8631 5.19933 39.1614C5.89564 39.4887 6.52436 39.5686 7.1496 39.4083C7.25594 39.3803 7.37823 39.3449 7.4834 39.2766C7.55833 39.2285 7.57879 39.2301 7.65243 39.285C7.73971 39.3499 7.83252 39.4044 7.92263 39.4573C7.97245 39.4865 8.02266 39.516 8.06952 39.5457C8.07698 39.552 8.09295 39.5781 8.09887 39.5878C8.65988 40.5037 9.27791 41.355 9.94525 42.1315C9.58429 41.8686 9.21368 41.6784 8.82002 41.5517C7.61703 41.1637 6.35611 41.2131 5.10729 41.6964C4.92089 41.7687 4.71659 41.8783 4.70295 41.886C4.67437 41.9048 4.65467 41.9352 4.64849 41.9701C4.64309 42.0044 4.65197 42.0395 4.67282 42.0663C4.71183 42.117 4.74955 42.1681 4.78688 42.2187L4.79512 42.2298C4.87944 42.3447 4.97495 42.4748 5.08206 42.59C5.56441 43.1076 6.15928 43.4546 6.73033 43.7525C7.51559 44.1604 8.31861 44.3801 9.11726 44.4058C9.15485 44.4071 9.19244 44.4079 9.2299 44.4079C9.96456 44.4079 10.5381 44.1655 10.9801 43.6698C10.9855 43.6659 11.0047 43.6586 11.0153 43.6585C11.1842 43.6706 11.3447 43.6952 11.4647 43.7152C11.4836 43.7185 11.5069 43.7298 11.5214 43.743C12.26 44.3975 13.0421 44.9719 13.8592 45.4608C13.7353 45.4241 13.6078 45.3921 13.4772 45.3665C12.6041 45.1985 11.713 45.3039 10.7345 45.693C10.0744 45.9564 9.46045 46.3434 8.85761 46.8759C8.80792 46.9196 8.80096 46.9947 8.8419 47.0468C9.05521 47.3186 9.33275 47.4708 9.57618 47.5836C10.1699 47.8598 10.8401 48.0366 11.6257 48.1245C11.628 48.1246 11.8805 48.1465 12.2345 48.1465C12.49 48.1465 12.7278 48.135 12.9408 48.1125C13.1445 48.0911 13.3476 48.0562 13.5447 48.0087C14.4499 47.7881 15.0633 47.3345 15.4148 46.6303C15.4211 46.6243 15.4481 46.6086 15.4824 46.6002C15.6457 46.5596 15.7927 46.531 15.9325 46.5123C15.9655 46.507 16.0065 46.5159 16.0583 46.5368C16.6834 46.7779 17.345 46.9788 18.0232 47.1337C18.0328 47.136 18.0427 47.1371 18.0526 47.1371C18.0982 47.1371 18.1401 47.112 18.1623 47.071C18.227 46.9504 18.3059 46.8347 18.3967 46.7271C18.4251 46.6932 18.4336 46.6481 18.4196 46.6064C18.4062 46.5659 18.3722 46.5352 18.3287 46.5251Z" fill="#44AFA7"/>
<path d="M18.915 15.6538L21.9614 0.399409H16.1374L16.227 -0.0261909H28.323L28.2334 0.399409H22.4094L19.363 15.6538H18.915ZM42.7005 -0.0261909H43.1485L40.0125 15.6538H39.5645L42.7005 -0.0261909ZM28.1405 15.6538H27.6925L30.8285 -0.0261909H31.2765L28.1405 15.6538ZM41.2221 7.90341H29.5741L29.6637 7.47781H41.3117L41.2221 7.90341ZM11.628 42.6538L22.044 26.9738H22.492L26.636 42.6538H26.1656L22.1336 27.3322H22.3352L12.1656 42.6538H11.628ZM14.9656 37.9274L15.2792 37.5018H25.0232L25.1576 37.9274H14.9656ZM29.2675 42.6538L32.4035 26.9738H32.7843L41.4307 42.161L41.2515 42.0938L44.2755 26.9738H44.7235L41.5875 42.6538H41.2067L32.5603 27.4666L32.7395 27.5338L29.7155 42.6538H29.2675ZM24.3795 65.577L24.5363 64.8826L37.3491 53.9738H38.0211L29.4867 61.2314L29.3075 61.3882L24.3795 65.577ZM23.2147 69.6538L26.3507 53.9738H26.7987L23.6627 69.6538H23.2147ZM34.8627 69.6538L29.0163 61.209L29.3971 60.985L35.4003 69.6538H34.8627ZM19.0297 96.6538L20.1273 91.1658L20.1721 91.5018L15.7817 80.9738H16.2745L20.4409 90.9866L20.2841 91.009L28.4377 80.9738H28.9977L20.3961 91.5466L20.5753 91.1658L19.4777 96.6538H19.0297ZM34.6667 96.721C33.1435 96.721 31.8592 96.4597 30.8139 95.937C29.7685 95.3994 28.9696 94.6527 28.4171 93.697C27.8795 92.7413 27.6107 91.6362 27.6107 90.3818C27.6107 89.1274 27.8197 87.9327 28.2379 86.7978C28.6709 85.6629 29.2907 84.6549 30.0971 83.7738C30.9035 82.8778 31.8816 82.1759 33.0315 81.6682C34.1813 81.1605 35.4805 80.9066 36.9291 80.9066C38.4523 80.9066 39.7365 81.1754 40.7819 81.713C41.8421 82.2357 42.6411 82.9749 43.1787 83.9306C43.7163 84.8714 43.9851 85.9765 43.9851 87.2458C43.9851 88.5002 43.7685 89.6949 43.3355 90.8298C42.9173 91.9647 42.3051 92.9802 41.4987 93.8762C40.6923 94.7573 39.7141 95.4517 38.5643 95.9594C37.4144 96.4671 36.1152 96.721 34.6667 96.721ZM34.7115 96.2954C36.0555 96.2954 37.2651 96.0565 38.3403 95.5786C39.4304 95.1007 40.3563 94.4437 41.1179 93.6074C41.8944 92.7711 42.4917 91.8079 42.9099 90.7178C43.328 89.6277 43.5371 88.4703 43.5371 87.2458C43.5371 86.0661 43.2832 85.0357 42.7755 84.1546C42.2827 83.2735 41.5435 82.5866 40.5579 82.0938C39.5723 81.5861 38.3477 81.3322 36.8843 81.3322C35.5403 81.3322 34.3232 81.5711 33.2331 82.049C32.1579 82.5269 31.232 83.1839 30.4555 84.0202C29.6939 84.8565 29.104 85.8197 28.6859 86.9098C28.2677 87.9999 28.0587 89.1573 28.0587 90.3818C28.0587 91.5466 28.3051 92.577 28.7979 93.473C29.3056 94.3541 30.0523 95.0485 31.0379 95.5562C32.0235 96.049 33.248 96.2954 34.7115 96.2954ZM28.2033 123.721C26.8145 123.721 25.7094 123.422 24.8881 122.825C24.0817 122.213 23.5441 121.406 23.2753 120.406C23.0214 119.405 23.0214 118.315 23.2753 117.135L25.0897 107.974H25.5377L23.7009 117.158C23.5366 117.934 23.4844 118.688 23.5441 119.42C23.6188 120.152 23.8278 120.809 24.1713 121.391C24.5148 121.974 25.0225 122.437 25.6945 122.78C26.3665 123.124 27.2326 123.295 28.2929 123.295C29.5921 123.295 30.6822 123.056 31.5633 122.579C32.4444 122.101 33.1462 121.429 33.6689 120.563C34.2065 119.682 34.5948 118.659 34.8337 117.494L36.7377 107.974H37.1857L35.2817 117.516C34.9084 119.443 34.1393 120.958 32.9745 122.063C31.8097 123.168 30.2193 123.721 28.2033 123.721Z" fill="#44AFA7"/>
<path opacity="0.8" fill-rule="evenodd" clip-rule="evenodd" d="M23.4993 46.008C23.8999 46.3356 24.4903 46.2765 24.8182 45.876L27.295 42.8487C27.623 42.4481 27.564 41.8575 27.1634 41.5298L26.6885 41.1413C26.2879 40.8136 25.6975 40.8724 25.3698 41.2733L22.8927 44.3003C22.5651 44.7012 22.6241 45.2916 23.0244 45.6194L23.4993 46.008ZM32.2134 41.1851L35.1708 43.7449C35.5622 44.0837 35.6048 44.6756 35.2658 45.0672L34.8646 45.531C34.5258 45.9223 33.9336 45.965 33.5423 45.6262L30.585 43.0664C30.1935 42.7276 30.1511 42.1358 30.4896 41.7444L30.8914 41.2803C31.2299 40.889 31.8221 40.8462 32.2134 41.1851ZM33.7103 47.9455C33.7627 48.4659 33.6087 48.9753 33.2773 49.3803L32.0914 50.829C31.76 51.234 31.2907 51.4856 30.7709 51.5372C30.6077 51.5533 30.4457 51.5497 30.2874 51.5263C29.9888 51.4825 29.7062 51.3652 29.4555 51.1892L28.9573 51.7979C28.5236 52.3279 27.8328 52.5949 27.1549 52.4949C26.8059 52.4435 26.4761 52.2976 26.2019 52.0732L24.7531 50.8869C24.3482 50.5557 24.0966 50.0866 24.0445 49.5662C23.9927 49.0459 24.1468 48.5362 24.4782 48.1318L25.1419 47.3203C25.1891 47.2625 25.2575 47.2258 25.3317 47.2185C25.4056 47.2109 25.4801 47.2335 25.5376 47.2806L28.8219 49.9688C28.8422 49.9783 28.8626 49.9897 28.8808 50.0047L29.6922 50.6685C29.9809 50.9047 30.3439 51.0147 30.7145 50.9776C31.0854 50.9403 31.4198 50.761 31.6559 50.4727L32.8419 49.0239C33.3295 48.4282 33.2411 47.5473 32.6457 47.0598L31.8031 46.4062C31.4089 46.8331 30.9376 47.0681 30.3985 47.1041C29.3587 47.1737 28.3565 46.4721 27.8972 46.0936C27.237 47.0415 26.4583 47.0619 26.4227 47.0623C26.4076 47.0625 26.393 47.0614 26.3785 47.0592C26.3461 47.0545 26.3146 47.0441 26.2858 47.0287C25.9964 46.8723 25.8264 46.6789 25.7661 46.4368C25.6851 46.1125 25.8059 45.731 26.1586 45.2006C27.0348 43.8809 28.066 43.8892 28.6823 43.8942L28.6825 43.8942L28.6908 43.8943H28.6908C28.8285 43.8953 28.9477 43.8962 29.0386 43.8829C29.4468 43.8238 29.6231 43.4035 29.6249 43.399C29.6821 43.2548 29.8456 43.1845 29.9897 43.2406C30.134 43.2978 30.2052 43.4611 30.1479 43.6056C30.1366 43.6351 29.8535 44.3329 29.1195 44.4392C28.9847 44.4587 28.8364 44.4576 28.6793 44.4564H28.6793L28.6778 44.4564C28.0794 44.4514 27.3347 44.4454 26.6267 45.5115C26.3191 45.9746 26.2855 46.1964 26.3117 46.3004C26.3223 46.3442 26.3526 46.4089 26.4808 46.4911C26.657 46.4576 27.1596 46.2964 27.5889 45.526C27.6316 45.4495 27.7076 45.3973 27.7942 45.3848C27.8808 45.3723 27.9688 45.4007 28.0313 45.4621C28.0431 45.4737 29.2281 46.6192 30.3624 46.5427C30.8136 46.5119 31.1907 46.2938 31.5157 45.8758C31.5918 45.7785 31.7188 45.7458 31.8292 45.784C31.8867 45.7856 31.9444 45.8039 31.9933 45.8419L32.9961 46.6196C33.4068 46.9561 33.6584 47.4251 33.7103 47.9455ZM25.3987 47.8942L29.008 50.8482L28.522 51.4422C28.2079 51.8255 27.7278 52.0112 27.2367 51.9389C26.9884 51.9022 26.7535 51.7983 26.5579 51.6381L25.109 50.4519C24.8206 50.216 24.6411 49.8814 24.604 49.5103C24.5672 49.1396 24.6766 48.7765 24.9128 48.4882L25.3987 47.8942Z" fill="#44AFA7"/>
</g>
<path d="M18.4108 21.6V17.056H16.6188V16H21.4988V17.056H19.7068V21.6H18.4108ZM24.7241 17.232C25.0654 17.232 25.3694 17.3013 25.6361 17.44C25.9081 17.5733 26.1214 17.7813 26.2761 18.064C26.4307 18.3413 26.5081 18.6987 26.5081 19.136V21.6H25.2601V19.328C25.2601 18.9813 25.1827 18.7253 25.0281 18.56C24.8787 18.3947 24.6654 18.312 24.3881 18.312C24.1907 18.312 24.0121 18.3547 23.8521 18.44C23.6974 18.52 23.5747 18.6453 23.4841 18.816C23.3987 18.9867 23.3561 19.2053 23.3561 19.472V21.6H22.1081V15.664H23.3561V18.488L23.0761 18.128C23.2307 17.84 23.4521 17.6187 23.7401 17.464C24.0281 17.3093 24.3561 17.232 24.7241 17.232ZM30.2793 21.6V20.76L30.1993 20.576V19.072C30.1993 18.8053 30.1167 18.5973 29.9513 18.448C29.7913 18.2987 29.5433 18.224 29.2073 18.224C28.978 18.224 28.7513 18.2613 28.5273 18.336C28.3087 18.4053 28.122 18.5013 27.9673 18.624L27.5193 17.752C27.754 17.5867 28.0367 17.4587 28.3673 17.368C28.698 17.2773 29.034 17.232 29.3753 17.232C30.0313 17.232 30.5407 17.3867 30.9033 17.696C31.266 18.0053 31.4473 18.488 31.4473 19.144V21.6H30.2793ZM28.9673 21.664C28.6313 21.664 28.3433 21.608 28.1033 21.496C27.8633 21.3787 27.6793 21.2213 27.5513 21.024C27.4233 20.8267 27.3593 20.6053 27.3593 20.36C27.3593 20.104 27.4207 19.88 27.5433 19.688C27.6713 19.496 27.8713 19.3467 28.1433 19.24C28.4153 19.128 28.77 19.072 29.2073 19.072H30.3513V19.8H29.3433C29.05 19.8 28.8473 19.848 28.7353 19.944C28.6287 20.04 28.5753 20.16 28.5753 20.304C28.5753 20.464 28.6367 20.592 28.7593 20.688C28.8873 20.7787 29.0607 20.824 29.2793 20.824C29.4873 20.824 29.674 20.776 29.8393 20.68C30.0047 20.5787 30.1247 20.432 30.1993 20.24L30.3913 20.816C30.3007 21.0933 30.1353 21.304 29.8953 21.448C29.6553 21.592 29.346 21.664 28.9673 21.664ZM35.1928 17.232C35.5342 17.232 35.8382 17.3013 36.1048 17.44C36.3768 17.5733 36.5902 17.7813 36.7448 18.064C36.8995 18.3413 36.9768 18.6987 36.9768 19.136V21.6H35.7288V19.328C35.7288 18.9813 35.6515 18.7253 35.4968 18.56C35.3475 18.3947 35.1342 18.312 34.8568 18.312C34.6595 18.312 34.4808 18.3547 34.3208 18.44C34.1662 18.52 34.0435 18.6453 33.9528 18.816C33.8675 18.9867 33.8248 19.2053 33.8248 19.472V21.6H32.5768V17.296H33.7688V18.488L33.5448 18.128C33.6995 17.84 33.9208 17.6187 34.2088 17.464C34.4968 17.3093 34.8248 17.232 35.1928 17.232ZM39.1401 20.72L39.1721 19.2L41.1801 17.296H42.6681L40.7401 19.256L40.0921 19.784L39.1401 20.72ZM38.1081 21.6V15.664H39.3561V21.6H38.1081ZM41.3161 21.6L39.8601 19.792L40.6441 18.824L42.8281 21.6H41.3161ZM23.1208 33.216C22.8968 33.216 22.6755 33.1813 22.4568 33.112C22.2382 33.0427 22.0595 32.9467 21.9208 32.824L22.3768 31.936C22.4728 32.0213 22.5822 32.088 22.7048 32.136C22.8328 32.184 22.9582 32.208 23.0808 32.208C23.2568 32.208 23.3955 32.1653 23.4968 32.08C23.6035 32 23.6995 31.864 23.7848 31.672L24.0088 31.144L24.1048 31.008L25.6488 27.296H26.8488L24.9048 31.864C24.7662 32.2107 24.6062 32.4827 24.4248 32.68C24.2488 32.8773 24.0515 33.016 23.8328 33.096C23.6195 33.176 23.3822 33.216 23.1208 33.216ZM23.8568 31.768L21.9368 27.296H23.2248L24.7128 30.896L23.8568 31.768ZM29.2889 31.664C28.8302 31.664 28.4222 31.568 28.0649 31.376C27.7129 31.184 27.4329 30.9227 27.2249 30.592C27.0222 30.256 26.9209 29.8747 26.9209 29.448C26.9209 29.016 27.0222 28.6347 27.2249 28.304C27.4329 27.968 27.7129 27.7067 28.0649 27.52C28.4222 27.328 28.8302 27.232 29.2889 27.232C29.7422 27.232 30.1476 27.328 30.5049 27.52C30.8622 27.7067 31.1422 27.9653 31.3449 28.296C31.5476 28.6267 31.6489 29.0107 31.6489 29.448C31.6489 29.8747 31.5476 30.256 31.3449 30.592C31.1422 30.9227 30.8622 31.184 30.5049 31.376C30.1476 31.568 29.7422 31.664 29.2889 31.664ZM29.2889 30.64C29.4969 30.64 29.6836 30.592 29.8489 30.496C30.0142 30.4 30.1449 30.264 30.2409 30.088C30.3369 29.9067 30.3849 29.6933 30.3849 29.448C30.3849 29.1973 30.3369 28.984 30.2409 28.808C30.1449 28.632 30.0142 28.496 29.8489 28.4C29.6836 28.304 29.4969 28.256 29.2889 28.256C29.0809 28.256 28.8942 28.304 28.7289 28.4C28.5636 28.496 28.4302 28.632 28.3289 28.808C28.2329 28.984 28.1849 29.1973 28.1849 29.448C28.1849 29.6933 28.2329 29.9067 28.3289 30.088C28.4302 30.264 28.5636 30.4 28.7289 30.496C28.8942 30.592 29.0809 30.64 29.2889 30.64ZM34.2991 31.664C33.9417 31.664 33.6217 31.5947 33.3391 31.456C33.0617 31.3173 32.8457 31.1067 32.6911 30.824C32.5364 30.536 32.4591 30.1707 32.4591 29.728V27.296H33.7071V29.544C33.7071 29.9013 33.7817 30.1653 33.9311 30.336C34.0857 30.5013 34.3017 30.584 34.5791 30.584C34.7711 30.584 34.9417 30.544 35.0911 30.464C35.2404 30.3787 35.3577 30.2507 35.4431 30.08C35.5284 29.904 35.5711 29.6853 35.5711 29.424V27.296H36.8191V31.6H35.6351V30.416L35.8511 30.76C35.7071 31.0587 35.4937 31.2853 35.2111 31.44C34.9337 31.5893 34.6297 31.664 34.2991 31.664Z" fill="#1B2436"/>
<defs>
<clipPath id="clip0_1_2898">
<rect width="56" height="47.358" fill="white" transform="translate(1 5.49382)"/>
</clipPath>
</defs>
</svg>
